<?xml version="1.0" encoding="utf-8" ?>
<svg xmlns="http://www.w3.org/2000/svg" xmlns:xlink="http://www.w3.org/1999/xlink" width="358" height="116">
	<path fill="#FEFEFE" fill-opacity="0.97254902" transform="matrix(0.727642 0 0 0.725 3.05176e-05 0)" d="M66.219 109.517C69.2231 109.094 76.5425 109.485 79.9363 109.484C88.6039 109.479 97.4804 109.1 106.125 109.481C106.636 109.504 107.138 109.598 107.601 109.818C103.67 110.52 99.0003 110.041 94.9649 110.034Q82.6663 109.973 70.368 110.067C69.1537 110.073 67.0847 110.373 66.219 109.517Z"/>
	<path fill="#FEFEFE" fill-opacity="0.97254902" transform="matrix(0.727642 0 0 0.725 3.05176e-05 0)" d="M305.941 109.518C308.294 109.299 310.773 109.485 313.144 109.485L327.594 109.48L346.808 109.469C349.801 109.466 352.913 109.287 355.893 109.459L355.868 109.844C355.744 109.921 355.621 109.982 355.475 110.005C354.065 110.23 352.26 110.024 350.82 110.024L339.34 110.02L318.732 110.045C315.153 110.053 311.519 110.208 307.949 110.043C307.057 110.001 306.703 109.992 305.941 109.518Z"/>
	<path fill="#FEFEFE" fill-opacity="0.97254902" transform="matrix(0.727642 0 0 0.725 3.05176e-05 0)" d="M196.738 59.7506C201.93 59.8178 236.576 59.1745 238.432 59.9662C235.692 60.8205 227.509 60.2784 224.226 60.2755L197.22 60.26C197.398 60.6115 197.509 60.9321 197.523 61.3275C197.893 71.7393 197.539 82.2953 197.537 92.7198C197.537 95.6199 197.945 106.877 197.362 108.857C197.293 109.091 197.174 109.297 197.029 109.491C201.724 109.489 236.878 108.992 237.914 109.777C236.876 110.39 201.34 110.03 196.727 110.029C196.796 109.884 196.86 109.736 196.912 109.583C197.197 108.745 197.195 65.7554 197.061 61.0618C197.047 60.5613 196.968 60.1984 196.738 59.7506Z"/>
	<path fill="#FEFEFE" transform="matrix(0.727642 0 0 0.725 3.05176e-05 0)" d="M181.121 59.8734C183.922 59.6719 186.759 59.7463 189.566 59.7417C189.813 60.1164 189.906 60.4152 189.937 60.8613C190.399 67.3494 190.028 74.1236 190.02 80.6407C190.01 89.6992 190.238 98.8078 190.006 107.86C189.981 108.841 190.048 109.306 189.325 109.988C186.468 110.085 183.59 110.02 180.73 110.023C181.431 108.599 181.009 66.0229 181.121 59.8734Z"/>
	<path fill="#FEFEFE" transform="matrix(0.727642 0 0 0.725 3.05176e-05 0)" d="M305.745 59.7707C308.75 59.7753 311.763 59.8264 314.767 59.7723C315.059 60.243 315.154 60.6524 315.188 61.1972C315.707 69.569 315.284 79.1136 315.282 87.6027C315.282 90.4036 315.696 97.486 315.173 99.8606C315.1 100.194 314.918 100.494 314.726 100.771C328.396 100.55 342.11 100.672 355.782 100.764C356.612 102.055 356.506 107.211 356.186 108.741C356.131 109.002 356.028 109.232 355.893 109.459C352.913 109.287 349.801 109.466 346.808 109.469L327.594 109.48L313.144 109.485C310.773 109.485 308.294 109.299 305.941 109.518C306.197 107.231 306.032 104.834 306.022 102.529L306.001 90.5565L306.012 70.3285C306.018 67.2283 306.171 64.0907 306.066 60.9959C306.052 60.5876 305.944 60.1294 305.745 59.7707Z"/>
	<path fill="#FEFEFE" transform="matrix(0.727642 0 0 0.725 3.05176e-05 0)" d="M255.052 59.8746C258.485 59.285 265.296 59.7276 269.05 59.7288L300.781 59.7544C300.945 60.0012 301.084 60.2952 301.159 60.5831C301.591 62.2489 301.683 67.6509 300.842 69.0695C297.241 68.8296 293.533 68.9973 289.918 69.0002C281.225 69.0069 272.506 69.2004 263.818 69.0451C263.981 69.3422 264.125 69.6711 264.188 70.0056C264.508 71.7254 264.656 79.0057 263.733 80.2941C271.274 80.0649 278.89 80.3 286.438 80.3082C288.822 80.2807 291.214 80.3696 293.598 80.416C293.733 80.641 293.869 80.8939 293.921 81.1532C294.262 82.8462 294.456 88.0715 293.553 89.4949C283.633 89.2823 273.66 89.8568 263.751 89.4687C263.774 89.5118 263.796 89.5555 263.821 89.5982C263.973 89.8659 264.11 90.11 264.181 90.4155C264.644 92.4011 264.443 106.45 264.212 108.988C264.177 109.378 264.029 109.706 263.828 110.037C260.891 109.772 257.698 110.012 254.73 110.023C255.329 108.776 255.099 65.463 255.052 59.8746Z"/>
	<path fill="#FEFEFE" transform="matrix(0.727642 0 0 0.725 3.05176e-05 0)" d="M448.205 59.8844C450.548 59.6415 454.134 59.3476 456.402 59.8324C456.999 59.9599 457.26 60.0409 457.589 60.5684C459.414 63.4964 462.014 72.0215 463.325 75.6134C465.225 80.8237 467.601 86.1897 469.093 91.5201C469.228 92.0026 469.233 92.4283 469.121 92.9168C469.584 92.4126 469.877 91.9034 470.145 91.2745C473.273 83.9199 475.763 76.1631 478.501 68.6491C479.325 66.3867 481.354 62.025 481.64 59.8985C484.81 59.5618 488.121 59.7221 491.301 59.8689C491.326 59.9527 491.353 60.0511 491.354 60.1385C491.368 61.1586 486.615 73.6609 485.92 74.3724C485.974 74.5491 486.014 74.7346 485.984 74.92C485.532 77.6728 482.945 83.5439 481.905 86.4085C479.228 93.7843 476.847 101.519 473.731 108.71C473.511 109.219 473.281 109.576 472.837 109.924C470.624 110.306 468.051 110.055 465.814 109.97C465.837 109.884 465.863 109.784 465.863 109.694C465.865 108.634 454.624 78.4868 453.232 75.3463C453.021 74.87 452.682 74.4625 452.309 74.1024C452.418 74.548 452.538 75.0441 452.492 75.5037C452.286 77.5421 449.216 84.7785 448.357 87.1232C445.748 94.244 443.427 101.611 440.489 108.595C440.26 109.139 440.025 109.542 439.582 109.941C437.494 110.425 434.569 110.043 432.422 109.926C432.683 108.601 420.031 75.0996 418.365 70.5268C417.359 67.7649 414.993 62.6452 414.741 59.8749C417.653 59.7437 420.891 59.4305 423.775 59.9146C424.023 60.1543 424.236 60.4392 424.412 60.7345C426.164 63.672 428.664 71.9137 430.011 75.5719C431.847 80.5613 434.624 86.9505 435.978 91.8478C436.093 92.262 436.032 92.6806 435.923 93.0891C436 93.0065 436.074 92.9232 436.145 92.8351C437.156 91.5834 448.312 60.8751 448.205 59.8844Z"/>
	<path fill="#FEFEFE" transform="matrix(0.727642 0 0 0.725 3.05176e-05 0)" d="M66.0944 59.7452L92.7915 59.7294C97.1485 59.7206 102.184 59.2107 106.436 60.0143Q107.16 60.1495 107.856 60.3921Q108.551 60.6346 109.203 60.9791Q109.854 61.3236 110.446 61.7622Q111.038 62.2008 111.557 62.7234C115.385 66.6253 114.34 73.5103 114.262 78.5814C114.241 79.9322 114.234 81.2702 114.033 82.6098C114.715 84.0399 115.449 85.4828 115.839 87.0243C116.872 91.0999 117.138 99.5649 115.731 103.514C114.855 105.971 113.142 107.899 110.773 108.998C109.754 109.47 108.706 109.667 107.601 109.818C107.138 109.598 106.636 109.504 106.125 109.481C97.4804 109.1 88.6039 109.479 79.9363 109.484C76.5425 109.485 69.2231 109.094 66.219 109.517C65.5064 106.424 65.9833 98.1159 65.9847 94.6022Q65.9331 77.1733 66.0944 59.7452ZM75.9068 89.1277C75.4988 89.4242 75.406 89.4593 75.3203 89.9887C74.7749 93.3566 75.4738 97.2317 75.2448 100.665Q91.0587 100.803 106.873 100.725C107.468 97.5228 107.014 92.4901 107.012 89.0954Q96.1112 88.9548 85.2096 89.0303C82.1653 89.0406 78.9276 89.3359 75.9068 89.1277ZM75.8444 69.1279C75.3011 69.6221 75.2953 69.8736 75.263 70.608C75.1307 73.6167 75.4332 76.6576 75.2435 79.6648Q90.0741 79.798 104.905 79.7455C105.402 76.4623 105 72.4805 104.996 69.1403C97.9874 68.9118 90.9609 69.0054 83.9496 69.0339C81.2858 69.0447 78.4926 69.2847 75.8444 69.1279Z"/>
	<path fill="#FEFEFE" transform="matrix(0.727642 0 0 0.725 3.05176e-05 0)" d="M238.432 59.9662C240.783 60.0062 243.105 61.2228 244.718 62.8998C245.599 63.8162 246.424 65.0184 246.731 66.2666C247.878 70.9361 247.29 76.6956 247.294 81.51C247.299 87.3065 247.424 93.1372 247.273 98.9305C247.188 102.195 246.747 104.95 244.266 107.277C242.489 108.943 240.325 109.726 237.914 109.777C236.878 108.992 201.724 109.489 197.029 109.491C197.174 109.297 197.293 109.091 197.362 108.857C197.945 106.877 197.537 95.6199 197.537 92.7198C197.539 82.2953 197.893 71.7393 197.523 61.3275C197.509 60.9321 197.398 60.6115 197.22 60.26L224.226 60.2755C227.509 60.2784 235.692 60.8205 238.432 59.9662ZM206.503 69.1247C205.825 70.5619 206.234 73.8848 206.239 75.5607C206.25 79.2156 206.848 99.2062 205.783 100.735C209.414 100.712 236.095 101.163 237.306 100.584C237.908 100.031 237.93 99.8572 237.971 99.0258C238.126 95.8959 238.32 70.3027 237.609 69.1498C227.255 68.6677 216.86 69.2465 206.503 69.1247Z"/>
	<path fill="#FEFEFE" transform="matrix(0.727642 0 0 0.725 3.05176e-05 0)" d="M367.948 59.8749C374.025 59.3901 380.369 59.7189 386.473 59.7137C391.24 59.7096 396.531 59.2581 401.231 59.9283C403.032 60.1852 404.874 60.6958 406.313 61.8525C408.595 63.6875 409.598 66.0048 409.889 68.8539C410.437 74.2073 410.05 79.9515 410.049 85.3441C410.049 90.5832 410.557 96.4545 409.764 101.616C409.487 103.422 409.02 104.967 407.839 106.391C406.088 108.502 403.741 109.563 401.058 109.821C401.006 109.841 400.954 109.86 400.902 109.877C399.78 110.227 372.241 110.223 369.455 109.97C367.863 109.826 366.246 109.485 364.838 108.701C362.677 107.499 360.805 105.262 360.148 102.865C359.394 100.113 359.458 73.5752 359.85 69.3088C359.996 67.7204 360.229 66.1143 361.037 64.7174C362.577 62.0549 365.058 60.657 367.948 59.8749ZM369.277 69.1249C368.602 70.9674 368.969 73.9255 368.977 75.929C368.994 79.752 369.553 98.7328 368.675 100.613C372.162 100.736 398.702 101.153 400.109 100.625C400.242 100.468 400.558 100.185 400.631 100.01C400.972 99.1821 400.86 72.6333 400.664 70.0655C400.635 69.6784 400.537 69.4068 400.312 69.0926Q384.794 68.8793 369.277 69.1249Z"/>
	<path fill="#FEFEFE" transform="matrix(0.727642 0 0 0.725 3.05176e-05 0)" d="M132.331 59.8365C139.003 59.5468 145.744 59.7183 152.424 59.7124C156.685 59.7086 161.43 59.3011 165.623 59.9782C167.422 60.2688 168.996 60.8041 170.415 61.9698C172.638 63.7952 173.606 66.0295 173.886 68.8379C174.433 74.2991 174.051 80.1315 174.051 85.6304C174.05 90.781 174.545 96.5408 173.766 101.615C173.489 103.424 173.022 104.966 171.84 106.391C170.089 108.503 167.74 109.56 165.058 109.826C164.972 109.858 164.882 109.89 164.792 109.91C161.81 110.555 151.822 109.989 148.164 109.982C143.214 109.974 137.91 110.482 133.011 109.925C131.361 109.737 129.704 109.305 128.307 108.379C126.265 107.027 124.507 104.775 124.022 102.34C123.226 98.3309 123.723 90.5061 123.721 86.1087C123.72 80.4646 123.259 74.3567 123.905 68.7756C124.1 67.0935 124.404 65.6144 125.361 64.196C127.01 61.7519 129.493 60.3985 132.331 59.8365ZM133.283 69.0644C132.513 71.2051 133.019 96.2461 133.024 100.626C136.464 100.74 162.713 101.122 164.109 100.635C164.244 100.473 164.557 100.188 164.631 100.008C165.049 98.9859 164.899 72.5221 164.655 69.9558C164.623 69.6158 164.509 69.3649 164.314 69.0903Q153.601 68.9319 142.887 69.0331C139.762 69.0446 136.382 69.3482 133.283 69.0644Z"/>
	<path fill="#FEFEFE" transform="matrix(0.727642 0 0 0.725 3.05176e-05 0)" d="M74.6233 11.881C75.9032 8.33798 77.7483 2.9974 81.3823 1.2891C83.5343 0.277487 86.3244 0.578577 88.5925 0.940522C95.5856 2.0565 103.929 5.17805 110.885 7.25672C117.306 9.17566 124.006 10.7024 130.287 13.0242C131.756 13.5673 133.111 14.1204 133.832 15.6264C134.253 16.5045 134.356 17.5496 134.475 18.506C133.63 19.802 132.85 20.7473 131.446 21.4474C128.454 22.9393 124.88 23.7828 121.705 24.8304L104.098 30.6667L87.3001 36.1232C83.7899 37.2717 80.2856 38.652 76.6627 39.4003C75.4353 39.6538 73.9752 39.754 72.8878 39.0179C72.0521 38.4522 71.672 37.4906 71.5133 36.5297C71.2306 34.819 71.8726 27.1475 71.5062 26.5285Q70.0051 26.8359 68.5209 27.2164Q67.0366 27.597 65.5728 28.0498Q64.1091 28.5027 62.6692 29.0267Q61.2294 29.5508 59.8169 30.1448Q58.4045 30.7388 57.0229 31.4013Q55.6413 32.0638 54.2938 32.7932Q52.9463 33.5226 51.6362 34.3172Q50.3261 35.1118 49.0565 35.9696Q47.7869 36.8274 46.5608 37.7465Q45.3348 38.6655 44.1553 39.6435Q42.9758 40.6215 41.8456 41.6562Q40.7154 42.6908 39.6373 43.7796Q38.5592 44.8684 37.5358 46.0087Q36.5124 47.1491 35.546 48.3382Q34.5797 49.5273 33.6728 50.7623Q32.766 51.9974 31.9207 53.2754Q31.0728 54.5761 30.2898 55.9169Q29.5069 57.2576 28.7908 58.6353Q28.0748 60.013 27.4273 61.4242Q26.7798 62.8354 26.2025 64.2767Q25.6252 65.718 25.1195 67.186Q24.6137 68.654 24.1808 70.145Q23.7478 71.6361 23.3887 73.1466Q23.0296 74.6572 22.7452 76.1836Q22.4608 77.7099 22.2517 79.2484Q22.0427 80.787 21.9096 82.3339Q21.7765 83.8808 21.7196 85.4324Q21.6627 86.984 21.6821 88.5365Q21.7016 90.0891 21.7973 91.6387Q21.8931 93.1884 22.0649 94.7315Q22.2367 96.2746 22.4842 97.8074Q22.7317 99.3402 23.0543 100.859Q23.3667 102.35 23.7526 103.824Q24.1384 105.298 24.5968 106.751Q25.0552 108.204 25.585 109.632Q26.1148 111.061 26.7147 112.461Q27.3147 113.861 27.9832 115.23Q28.6518 116.599 29.3873 117.934Q30.1228 119.268 30.9236 120.564Q31.7243 121.86 32.5882 123.115Q33.4522 124.37 34.3772 125.58Q35.3023 126.791 36.2862 127.954Q37.27 129.117 38.3103 130.23Q39.3506 131.343 40.4448 132.403Q41.5389 133.464 42.6842 134.468Q43.8295 135.473 45.0232 136.42Q46.2169 137.366 47.456 138.253Q48.6951 139.139 49.9766 139.963Q51.2602 140.797 52.5832 141.568Q53.9062 142.338 55.2653 143.043Q56.6244 143.748 58.0164 144.385Q59.4084 145.022 60.8299 145.591Q62.2514 146.159 63.6991 146.657Q65.1468 147.155 66.6171 147.582Q68.0874 148.008 69.5769 148.363Q71.0663 148.717 72.5713 148.997Q74.0763 149.278 75.5932 149.485Q77.1102 149.691 78.6354 149.824Q80.1607 149.956 81.6905 150.013Q83.2204 150.07 84.7513 150.053Q86.2821 150.035 87.8103 149.942Q89.3384 149.85 90.8602 149.682Q92.382 149.515 93.8937 149.273Q95.4055 149.031 96.9036 148.716Q98.9874 148.273 101.036 147.689Q103.085 147.104 105.089 146.382Q107.094 145.66 109.044 144.803Q110.995 143.946 112.883 142.959Q114.77 141.971 116.586 140.858Q118.403 139.744 120.139 138.509Q121.875 137.275 123.523 135.925Q125.171 134.575 126.724 133.116C128.762 131.171 134.291 124.159 135.452 123.386C135.925 123.072 136.239 123.055 136.701 123.339C136.968 124.414 136.461 125.533 135.914 126.445C135.012 127.951 133.836 129.361 132.788 130.769C122.976 143.935 108.065 154.141 92.0617 158.067C89.4848 158.699 85.9713 158.842 83.6414 160L63.3653 160L0 160L0 97.6268L0 74.887C0.627474 73.2557 0.848055 71.4245 1.26506 69.7254C2.11387 66.2668 3.05135 62.8693 4.31158 59.5334C11.1032 41.5556 25.7457 26.2129 43.3206 18.4115C53.45 13.9151 63.6764 12.5184 74.6233 11.881ZM0 97.6268L0 160L63.3653 160C61.3622 158.987 58.1175 158.786 55.9039 158.269C52.3311 157.435 48.6791 156.32 45.3036 154.875C26.3123 146.745 11.5477 131.919 4.1737 112.539Q2.56783 108.21 1.52418 103.712C1.05353 101.702 0.765125 99.54 0 97.6268Z"/>
</svg>
