<?xml version="1.0" encoding="utf-8" ?>
<svg xmlns="http://www.w3.org/2000/svg" xmlns:xlink="http://www.w3.org/1999/xlink" width="137" height="160">
	<path fill="#0F8" d="M74.6228 11.8809C75.7805 8.6779 77.7667 2.97891 81.0796 1.44092C83.2894 0.415094 85.854 0.52952 88.2062 0.873762C95.0478 1.87503 104.34 5.30537 111.261 7.36896C117.605 9.26046 124.262 10.7616 130.454 13.0856C131.92 13.636 133.247 14.2789 133.927 15.7846C134.353 16.7292 134.534 17.8052 134.146 18.7933C133.513 20.4052 131.755 21.3553 130.251 21.9929C127.081 23.3371 123.634 24.1928 120.353 25.2562L105.216 30.3116Q96.0624 33.4204 86.8322 36.2937C83.6147 37.3279 80.3762 38.5938 77.0709 39.3117C75.8945 39.5672 74.5477 39.6794 73.4034 39.225C72.6312 38.9184 72.0529 38.3313 71.7374 37.5621C70.4625 34.4538 72.3726 28.8716 71.634 26.5837C70.358 26.089 60.1267 29.9458 58.4576 30.6831C44.2315 36.9674 31.8297 49.6138 26.1912 64.1498C20.1704 79.6714 20.037 97.3422 26.8176 112.656Q27.4341 114.075 28.1205 115.461Q28.8068 116.848 29.5614 118.199Q30.3159 119.549 31.1367 120.861Q31.9575 122.172 32.8426 123.441Q33.7277 124.71 34.6748 125.933Q35.622 127.156 36.6288 128.331Q37.6357 129.506 38.6998 130.629Q39.7638 131.752 40.8825 132.82Q42.0011 133.889 43.1716 134.901Q44.3421 135.912 45.5614 136.865Q46.7808 137.817 48.046 138.707Q49.3113 139.597 50.6193 140.424Q51.9273 141.25 53.2748 142.01Q54.6223 142.77 56.0059 143.462Q57.3896 144.154 58.806 144.777Q60.2224 145.399 61.668 145.95Q63.0972 146.492 64.5511 146.964Q66.0051 147.436 67.4802 147.837Q68.9553 148.237 70.4482 148.566Q71.941 148.895 73.4481 149.15Q74.9552 149.406 76.4729 149.588Q77.9906 149.77 79.5154 149.878Q81.0401 149.986 82.5684 150.02Q84.0966 150.053 85.6246 150.013Q87.1527 149.972 88.6769 149.858Q90.2012 149.743 91.7181 149.554Q93.235 149.365 94.7409 149.103Q96.2468 148.841 97.7382 148.506Q99.2296 148.17 100.703 147.763Q102.176 147.356 103.628 146.877Q105.08 146.399 106.507 145.851Q107.934 145.302 109.332 144.685Q110.944 143.971 112.513 143.166Q114.082 142.361 115.602 141.467Q117.122 140.573 118.588 139.593Q120.055 138.613 121.462 137.551Q122.87 136.489 124.214 135.348Q125.558 134.206 126.835 132.99Q128.112 131.773 129.316 130.486Q130.521 129.198 131.65 127.843C132.305 127.042 134.779 123.427 135.646 123.313C136.007 123.266 136.639 123.345 137 123.41L137 124.658L137 159.562C136.859 159.654 136.715 159.73 136.56 159.796C135.41 160.285 90.0779 160.213 85.1725 159.973C84.7427 159.952 84.3505 159.842 83.9545 159.676C83.8399 159.735 83.7254 159.79 83.6037 159.834C82.3055 160.304 64.1799 160.209 63.0362 159.663C62.8108 159.775 62.5797 159.867 62.3315 159.915C60.5911 160.254 58.3497 160.005 56.5549 160.007L43.6813 160.012L15.9816 160.011C11.191 160.009 6.35477 160.144 1.56845 159.982C0.965321 159.962 0.516302 159.901 0 159.562L0 97.6268L0 74.8881C0.637229 73.2296 0.859758 71.3732 1.28465 69.6457C2.15924 66.0901 3.13206 62.6071 4.4449 59.1827C11.264 41.3957 25.8908 26.1487 43.3205 18.4116C53.4428 13.9182 63.6921 12.5174 74.6228 11.8809ZM0 97.6268L0 159.562C0.516302 159.901 0.965321 159.962 1.56845 159.982C6.35477 160.144 11.191 160.009 15.9816 160.011L43.6813 160.012L56.5549 160.007C58.3497 160.005 60.5911 160.254 62.3315 159.915C62.5797 159.867 62.8108 159.775 63.0362 159.663C56.6878 159.242 49.7374 156.755 43.9087 154.26C26.273 146.712 11.4267 131.499 4.52791 113.542Q2.77932 108.933 1.62787 104.139C1.11299 102 0.815763 99.6682 0 97.6268ZM83.9545 159.676C84.3505 159.842 84.7427 159.952 85.1725 159.973C90.0779 160.213 135.41 160.285 136.56 159.796C136.715 159.73 136.859 159.654 137 159.562L137 124.658Q136.038 126.231 135 127.755Q133.962 129.279 132.851 130.75Q131.739 132.221 130.557 133.636Q129.374 135.05 128.123 136.405Q126.872 137.76 125.556 139.051Q124.241 140.343 122.863 141.568Q121.485 142.793 120.048 143.949Q118.612 145.105 117.12 146.189Q115.629 147.273 114.086 148.282Q112.543 149.291 110.952 150.223Q109.361 151.156 107.726 152.008Q106.091 152.861 104.416 153.632Q102.742 154.403 101.031 155.091Q99.3203 155.779 97.5778 156.382Q95.8354 156.985 94.0654 157.502Q92.2954 158.018 90.5021 158.447C88.4418 158.945 86.066 159.532 83.9545 159.676Z"/>
</svg>
